# xmcd
#
# Track frame offsets: 
#        150
#        8374
#        32605
#        47961
#        66107
#        82225
#        99979
#        117309
#        136346
#        152510
#        164331
#        183296
#        199810
#        217393
#        226604
#        229254
#        242391
#
# Disc length: 3622 seconds
#
# Revision: 3
# Processed by: cddbd v1.5.2PL0 Copyright (c) Steve Scherf et al.
# Submitted via: ExactAudioCopy v0.95b4
#
DISCID=da0e2411
DTITLE=Bauchklang - Many People
DYEAR=2006
DGENRE=Beatboxing
TTITLE0=Intro
TTITLE1=12/8
TTITLE2=Rhythm Of Time
TTITLE3=Good You Do
TTITLE4=Barking News
TTITLE5=Radio
TTITLE6=Navigator
TTITLE7=Many People
TTITLE8=Sorry For Delay
TTITLE9=Fancy Dress
TTITLE10=Record
TTITLE11=Every Day
TTITLE12=Don't Step
TTITLE13=Paleo
TTITLE14=Warp
TTITLE15=Another View
TTITLE16=Cypress Trees (vocalremix)
EXTD=All sounds based on human vocals
EXTT0=
EXTT1=
EXTT2=
EXTT3=
EXTT4=
EXTT5=
EXTT6=
EXTT7=
EXTT8=
EXTT9=
EXTT10=
EXTT11=
EXTT12=
EXTT13=
EXTT14=
EXTT15=
EXTT16=
PLAYORDER=
